<svg width="20" height="20" viewBox="0 0 20 20" fill="y" xmlns="http://www.w3.org/2000/svg">
<g clip-path="url(#clip0)">
<path d="M14.9874 0.00414604L12.4805 0C9.66418 0 7.84413 1.9248 7.84413 4.90393V7.16497H5.32362C5.10582 7.16497 4.92944 7.34698 4.92944 7.57149V10.8475C4.92944 11.072 5.10602 11.2538 5.32362 11.2538H7.84413V19.5202C7.84413 19.7447 8.0205 19.9265 8.23831 19.9265H11.5269C11.7447 19.9265 11.921 19.7445 11.921 19.5202V11.2538H14.8681C15.0859 11.2538 15.2623 11.072 15.2623 10.8475L15.2635 7.57149C15.2635 7.46369 15.2219 7.36046 15.148 7.28417C15.0742 7.20788 14.9737 7.16497 14.8691 7.16497H11.921V5.24826C11.921 4.32701 12.134 3.85934 13.2982 3.85934L14.987 3.85872C15.2046 3.85872 15.3809 3.6767 15.3809 3.4524V0.410458C15.3809 0.186364 15.2048 0.00456064 14.9874 0.00414604Z" fill="#D4C17F"/>
</g>
<defs>
<clipPath id="clip0">
<rect width="19.3315" height="19.9265" fill="white" transform="translate(0.48938)"/>
</clipPath>
</defs>
</svg>
