<svg width="20" height="20" viewBox="0 0 20 20" fill="none" xmlns="http://www.w3.org/2000/svg">
<g clip-path="url(#clip0)">
<path d="M13.4423 0H6.19301C2.85715 0 0.151978 2.78846 0.151978 6.22702V13.6994C0.151978 17.138 2.85715 19.9265 6.19301 19.9265H13.4423C16.7781 19.9265 19.4833 17.138 19.4833 13.6994V6.22702C19.4833 2.78846 16.7781 0 13.4423 0ZM17.671 13.6994C17.671 16.1031 15.7741 18.0584 13.4423 18.0584H6.19301C3.86117 18.0584 1.96429 16.1031 1.96429 13.6994V6.22702C1.96429 3.82339 3.86117 1.86811 6.19301 1.86811H13.4423C15.7741 1.86811 17.671 3.82339 17.671 6.22702V13.6994Z" fill="white"/>
<path d="M9.81763 4.98145C7.1487 4.98145 4.9848 7.21196 4.9848 9.96306C4.9848 12.7142 7.1487 14.9447 9.81763 14.9447C12.4866 14.9447 14.6505 12.7142 14.6505 9.96306C14.6505 7.21196 12.4866 4.98145 9.81763 4.98145ZM9.81763 13.0766C8.15272 13.0766 6.79711 11.6792 6.79711 9.96306C6.79711 8.24565 8.15272 6.84955 9.81763 6.84955C11.4825 6.84955 12.8381 8.24565 12.8381 9.96306C12.8381 11.6792 11.4825 13.0766 9.81763 13.0766Z" fill="white"/>
<path d="M15.0129 5.27193C15.3686 5.27193 15.6569 4.97474 15.6569 4.60813C15.6569 4.24153 15.3686 3.94434 15.0129 3.94434C14.6573 3.94434 14.3689 4.24153 14.3689 4.60813C14.3689 4.97474 14.6573 5.27193 15.0129 5.27193Z" fill="white"/>
</g>
<defs>
<clipPath id="clip0">
<rect width="19.3313" height="19.9265" fill="white" transform="translate(0.151978)"/>
</clipPath>
</defs>
</svg>
