<svg width="245" height="64" viewBox="0 0 245 64" fill="none" xmlns="http://www.w3.org/2000/svg">
<path d="M53.212 9.8L44.86 35H39.892L33.664 16.352L27.328 35H22.324L13.972 9.8H18.832L25.096 28.952L31.612 9.8H35.932L42.304 29.06L48.748 9.8H53.212ZM75.9246 31.076V35H57.0246V9.8H75.4206V13.724H61.7046V20.276H73.8726V24.128H61.7046V31.076H75.9246ZM98.9978 21.896C100.39 22.352 101.494 23.12 102.31 24.2C103.126 25.256 103.534 26.576 103.534 28.16C103.534 30.344 102.694 32.036 101.014 33.236C99.3338 34.412 96.8858 35 93.6698 35H81.1418V9.8H92.9498C95.9258 9.8 98.2178 10.388 99.8258 11.564C101.434 12.716 102.238 14.312 102.238 16.352C102.238 17.6 101.95 18.704 101.374 19.664C100.798 20.624 100.006 21.368 98.9978 21.896ZM85.8218 13.472V20.42H92.4458C94.0778 20.42 95.3258 20.132 96.1898 19.556C97.0778 18.956 97.5218 18.092 97.5218 16.964C97.5218 15.812 97.0778 14.948 96.1898 14.372C95.3258 13.772 94.0778 13.472 92.4458 13.472H85.8218ZM93.3818 31.328C97.0058 31.328 98.8178 30.116 98.8178 27.692C98.8178 25.268 97.0058 24.056 93.3818 24.056H85.8218V31.328H93.3818ZM116.341 35.36C114.397 35.36 112.513 35.084 110.689 34.532C108.889 33.98 107.461 33.248 106.405 32.336L108.025 28.7C109.057 29.516 110.317 30.188 111.805 30.716C113.317 31.22 114.829 31.472 116.341 31.472C118.213 31.472 119.605 31.172 120.517 30.572C121.453 29.972 121.921 29.18 121.921 28.196C121.921 27.476 121.657 26.888 121.129 26.432C120.625 25.952 119.977 25.58 119.185 25.316C118.393 25.052 117.313 24.752 115.945 24.416C114.025 23.96 112.465 23.504 111.265 23.048C110.089 22.592 109.069 21.884 108.205 20.924C107.365 19.94 106.945 18.62 106.945 16.964C106.945 15.572 107.317 14.312 108.061 13.184C108.829 12.032 109.969 11.12 111.481 10.448C113.017 9.776 114.889 9.44 117.097 9.44C118.633 9.44 120.145 9.632 121.633 10.016C123.121 10.4 124.405 10.952 125.485 11.672L124.009 15.308C122.905 14.66 121.753 14.168 120.553 13.832C119.353 13.496 118.189 13.328 117.061 13.328C115.213 13.328 113.833 13.64 112.921 14.264C112.033 14.888 111.589 15.716 111.589 16.748C111.589 17.468 111.841 18.056 112.345 18.512C112.873 18.968 113.533 19.328 114.325 19.592C115.117 19.856 116.197 20.156 117.565 20.492C119.437 20.924 120.973 21.38 122.173 21.86C123.373 22.316 124.393 23.024 125.233 23.984C126.097 24.944 126.529 26.24 126.529 27.872C126.529 29.264 126.145 30.524 125.377 31.652C124.633 32.78 123.493 33.68 121.957 34.352C120.421 35.024 118.549 35.36 116.341 35.36ZM135.93 13.76H127.578V9.8H148.962V13.76H140.61V35H135.93V13.76ZM167.552 29.168H154.952L152.468 35H147.644L158.984 9.8H163.592L174.968 35H170.072L167.552 29.168ZM166.004 25.496L161.252 14.48L156.536 25.496H166.004ZM189.486 35.36C186.942 35.36 184.638 34.808 182.574 33.704C180.534 32.576 178.926 31.028 177.75 29.06C176.598 27.092 176.022 24.872 176.022 22.4C176.022 19.928 176.61 17.708 177.786 15.74C178.962 13.772 180.57 12.236 182.61 11.132C184.674 10.004 186.978 9.44 189.522 9.44C191.586 9.44 193.47 9.8 195.174 10.52C196.878 11.24 198.318 12.284 199.494 13.652L196.47 16.496C194.646 14.528 192.402 13.544 189.738 13.544C188.01 13.544 186.462 13.928 185.094 14.696C183.726 15.44 182.658 16.484 181.89 17.828C181.122 19.172 180.738 20.696 180.738 22.4C180.738 24.104 181.122 25.628 181.89 26.972C182.658 28.316 183.726 29.372 185.094 30.14C186.462 30.884 188.01 31.256 189.738 31.256C192.402 31.256 194.646 30.26 196.47 28.268L199.494 31.148C198.318 32.516 196.866 33.56 195.138 34.28C193.434 35 191.55 35.36 189.486 35.36ZM212.654 24.452L208.658 28.556V35H203.978V9.8H208.658V22.724L221.114 9.8H226.37L215.786 21.068L227.018 35H221.546L212.654 24.452Z" fill="white"/>
<path d="M12.9 51.8623L10.068 60.2623H9.132L6.672 53.0983L4.2 60.2623H3.276L0.444 51.8623H1.356L3.78 59.0863L6.288 51.8623H7.116L9.588 59.1223L12.048 51.8623H12.9ZM21.9082 59.4943V60.2623H15.9682V51.8623H21.7282V52.6303H16.8562V55.6183H21.2002V56.3743H16.8562V59.4943H21.9082ZM30.7275 55.9303C31.2795 56.0503 31.7035 56.2903 31.9995 56.6503C32.3035 57.0023 32.4555 57.4583 32.4555 58.0183C32.4555 58.7383 32.1875 59.2943 31.6515 59.6863C31.1235 60.0703 30.3395 60.2623 29.2995 60.2623H25.4355V51.8623H29.0595C29.9955 51.8623 30.7195 52.0503 31.2315 52.4263C31.7515 52.8023 32.0115 53.3343 32.0115 54.0223C32.0115 54.4863 31.8955 54.8823 31.6635 55.2103C31.4395 55.5303 31.1275 55.7703 30.7275 55.9303ZM26.3235 52.5943V55.6423H28.9995C29.6795 55.6423 30.2035 55.5143 30.5715 55.2583C30.9395 54.9943 31.1235 54.6143 31.1235 54.1183C31.1235 53.6223 30.9395 53.2463 30.5715 52.9903C30.2035 52.7263 29.6795 52.5943 28.9995 52.5943H26.3235ZM29.2875 59.5303C30.0395 59.5303 30.6075 59.4023 30.9915 59.1463C31.3755 58.8903 31.5675 58.4903 31.5675 57.9463C31.5675 56.8983 30.8075 56.3743 29.2875 56.3743H26.3235V59.5303H29.2875ZM35.2744 56.6383H38.4184V57.3823H35.2744V56.6383ZM41.9444 51.8623H45.3644C46.2524 51.8623 47.0364 52.0423 47.7164 52.4023C48.3964 52.7543 48.9244 53.2503 49.3004 53.8903C49.6764 54.5223 49.8644 55.2463 49.8644 56.0623C49.8644 56.8783 49.6764 57.6063 49.3004 58.2463C48.9244 58.8783 48.3964 59.3743 47.7164 59.7343C47.0364 60.0863 46.2524 60.2623 45.3644 60.2623H41.9444V51.8623ZM45.3164 59.4943C46.0524 59.4943 46.6964 59.3503 47.2484 59.0623C47.8004 58.7663 48.2284 58.3623 48.5324 57.8503C48.8364 57.3303 48.9884 56.7343 48.9884 56.0623C48.9884 55.3903 48.8364 54.7983 48.5324 54.2863C48.2284 53.7663 47.8004 53.3623 47.2484 53.0743C46.6964 52.7783 46.0524 52.6303 45.3164 52.6303H42.8324V59.4943H45.3164ZM59.2385 59.4943V60.2623H53.2985V51.8623H59.0585V52.6303H54.1865V55.6183H58.5305V56.3743H54.1865V59.4943H59.2385ZM65.0818 60.3343C64.4578 60.3343 63.8578 60.2343 63.2818 60.0343C62.7138 59.8343 62.2738 59.5703 61.9618 59.2423L62.3098 58.5583C62.6138 58.8623 63.0178 59.1103 63.5218 59.3023C64.0258 59.4863 64.5458 59.5783 65.0818 59.5783C65.8338 59.5783 66.3978 59.4423 66.7738 59.1703C67.1498 58.8903 67.3378 58.5303 67.3378 58.0903C67.3378 57.7543 67.2338 57.4863 67.0258 57.2863C66.8258 57.0863 66.5778 56.9343 66.2818 56.8303C65.9858 56.7183 65.5738 56.5983 65.0458 56.4703C64.4138 56.3103 63.9098 56.1583 63.5338 56.0143C63.1578 55.8623 62.8338 55.6343 62.5618 55.3303C62.2978 55.0263 62.1658 54.6143 62.1658 54.0943C62.1658 53.6703 62.2778 53.2863 62.5018 52.9423C62.7258 52.5903 63.0698 52.3103 63.5338 52.1023C63.9978 51.8943 64.5738 51.7903 65.2618 51.7903C65.7418 51.7903 66.2098 51.8583 66.6658 51.9943C67.1298 52.1223 67.5298 52.3023 67.8658 52.5343L67.5658 53.2423C67.2138 53.0103 66.8378 52.8383 66.4378 52.7263C66.0378 52.6063 65.6458 52.5463 65.2618 52.5463C64.5258 52.5463 63.9698 52.6903 63.5938 52.9783C63.2258 53.2583 63.0418 53.6223 63.0418 54.0703C63.0418 54.4063 63.1418 54.6783 63.3418 54.8863C63.5498 55.0863 63.8058 55.2423 64.1098 55.3543C64.4218 55.4583 64.8378 55.5743 65.3578 55.7023C65.9738 55.8543 66.4698 56.0063 66.8458 56.1583C67.2298 56.3023 67.5538 56.5263 67.8178 56.8303C68.0818 57.1263 68.2138 57.5303 68.2138 58.0423C68.2138 58.4663 68.0978 58.8543 67.8658 59.2063C67.6418 59.5503 67.2938 59.8263 66.8218 60.0343C66.3498 60.2343 65.7698 60.3343 65.0818 60.3343ZM71.5886 51.8623H72.4766V60.2623H71.5886V51.8623ZM82.5657 56.0623H83.4177V59.2663C83.0257 59.6103 82.5617 59.8743 82.0257 60.0583C81.4897 60.2423 80.9257 60.3343 80.3337 60.3343C79.4937 60.3343 78.7377 60.1503 78.0657 59.7823C77.3937 59.4143 76.8657 58.9063 76.4817 58.2583C76.0977 57.6023 75.9057 56.8703 75.9057 56.0623C75.9057 55.2543 76.0977 54.5263 76.4817 53.8783C76.8657 53.2223 77.3937 52.7103 78.0657 52.3423C78.7377 51.9743 79.4977 51.7903 80.3457 51.7903C80.9857 51.7903 81.5737 51.8943 82.1097 52.1023C82.6457 52.3023 83.0977 52.6023 83.4657 53.0023L82.9137 53.5663C82.2497 52.9103 81.4057 52.5823 80.3817 52.5823C79.7017 52.5823 79.0857 52.7343 78.5337 53.0383C77.9897 53.3343 77.5617 53.7503 77.2497 54.2863C76.9377 54.8143 76.7817 55.4063 76.7817 56.0623C76.7817 56.7183 76.9377 57.3103 77.2497 57.8383C77.5617 58.3663 77.9897 58.7823 78.5337 59.0863C79.0777 59.3903 79.6897 59.5423 80.3697 59.5423C81.2337 59.5423 81.9657 59.3263 82.5657 58.8943V56.0623ZM94.391 51.8623V60.2623H93.659L88.259 53.4463V60.2623H87.371V51.8623H88.103L93.515 58.6783V51.8623H94.391ZM105.181 53.9023C106.005 53.9023 106.637 54.1103 107.077 54.5263C107.517 54.9343 107.737 55.5423 107.737 56.3503V60.2623H106.921V59.2783C106.729 59.6063 106.445 59.8623 106.069 60.0463C105.701 60.2303 105.261 60.3223 104.749 60.3223C104.045 60.3223 103.485 60.1543 103.069 59.8183C102.653 59.4823 102.445 59.0383 102.445 58.4863C102.445 57.9503 102.637 57.5183 103.021 57.1903C103.413 56.8623 104.033 56.6983 104.881 56.6983H106.885V56.3143C106.885 55.7703 106.733 55.3583 106.429 55.0783C106.125 54.7903 105.681 54.6463 105.097 54.6463C104.697 54.6463 104.313 54.7143 103.945 54.8503C103.577 54.9783 103.261 55.1583 102.997 55.3903L102.613 54.7543C102.933 54.4823 103.317 54.2743 103.765 54.1303C104.213 53.9783 104.685 53.9023 105.181 53.9023ZM104.881 59.6503C105.361 59.6503 105.773 59.5423 106.117 59.3263C106.461 59.1023 106.717 58.7823 106.885 58.3663V57.3343H104.905C103.825 57.3343 103.285 57.7103 103.285 58.4623C103.285 58.8303 103.425 59.1223 103.705 59.3383C103.985 59.5463 104.377 59.6503 104.881 59.6503ZM114.707 53.9023C115.499 53.9023 116.127 54.1343 116.591 54.5983C117.063 55.0543 117.299 55.7223 117.299 56.6023V60.2623H116.447V56.6863C116.447 56.0303 116.283 55.5303 115.955 55.1863C115.627 54.8423 115.159 54.6703 114.551 54.6703C113.871 54.6703 113.331 54.8743 112.931 55.2823C112.539 55.6823 112.343 56.2383 112.343 56.9503V60.2623H111.491V53.9503H112.307V55.1143C112.539 54.7303 112.859 54.4343 113.267 54.2263C113.683 54.0103 114.163 53.9023 114.707 53.9023ZM126.836 51.3583V60.2623H126.02V59.0143C125.764 59.4383 125.424 59.7623 125 59.9863C124.584 60.2103 124.112 60.3223 123.584 60.3223C122.992 60.3223 122.456 60.1863 121.976 59.9143C121.496 59.6423 121.12 59.2623 120.848 58.7743C120.576 58.2863 120.44 57.7303 120.44 57.1063C120.44 56.4823 120.576 55.9263 120.848 55.4383C121.12 54.9503 121.496 54.5743 121.976 54.3103C122.456 54.0383 122.992 53.9023 123.584 53.9023C124.096 53.9023 124.556 54.0103 124.964 54.2263C125.38 54.4343 125.72 54.7423 125.984 55.1503V51.3583H126.836ZM123.656 59.5663C124.096 59.5663 124.492 59.4663 124.844 59.2663C125.204 59.0583 125.484 58.7663 125.684 58.3903C125.892 58.0143 125.996 57.5863 125.996 57.1063C125.996 56.6263 125.892 56.1983 125.684 55.8223C125.484 55.4463 125.204 55.1583 124.844 54.9583C124.492 54.7503 124.096 54.6463 123.656 54.6463C123.208 54.6463 122.804 54.7503 122.444 54.9583C122.092 55.1583 121.812 55.4463 121.604 55.8223C121.404 56.1983 121.304 56.6263 121.304 57.1063C121.304 57.5863 121.404 58.0143 121.604 58.3903C121.812 58.7663 122.092 59.0583 122.444 59.2663C122.804 59.4663 123.208 59.5663 123.656 59.5663ZM135.409 51.8623H138.829C139.717 51.8623 140.501 52.0423 141.181 52.4023C141.861 52.7543 142.389 53.2503 142.765 53.8903C143.141 54.5223 143.329 55.2463 143.329 56.0623C143.329 56.8783 143.141 57.6063 142.765 58.2463C142.389 58.8783 141.861 59.3743 141.181 59.7343C140.501 60.0863 139.717 60.2623 138.829 60.2623H135.409V51.8623ZM138.781 59.4943C139.517 59.4943 140.161 59.3503 140.713 59.0623C141.265 58.7663 141.693 58.3623 141.997 57.8503C142.301 57.3303 142.453 56.7343 142.453 56.0623C142.453 55.3903 142.301 54.7983 141.997 54.2863C141.693 53.7663 141.265 53.3623 140.713 53.0743C140.161 52.7783 139.517 52.6303 138.781 52.6303H136.297V59.4943H138.781ZM152.703 59.4943V60.2623H146.763V51.8623H152.523V52.6303H147.651V55.6183H151.995V56.3743H147.651V59.4943H152.703ZM163.098 51.8623L159.378 60.2623H158.502L154.782 51.8623H155.742L158.958 59.1583L162.198 51.8623H163.098ZM171.697 59.4943V60.2623H165.757V51.8623H171.517V52.6303H166.645V55.6183H170.989V56.3743H166.645V59.4943H171.697ZM175.224 51.8623H176.112V59.4943H180.816V60.2623H175.224V51.8623ZM187.238 60.3343C186.406 60.3343 185.65 60.1503 184.97 59.7823C184.298 59.4063 183.77 58.8943 183.386 58.2463C183.01 57.5983 182.822 56.8703 182.822 56.0623C182.822 55.2543 183.01 54.5263 183.386 53.8783C183.77 53.2303 184.298 52.7223 184.97 52.3543C185.65 51.9783 186.406 51.7903 187.238 51.7903C188.07 51.7903 188.818 51.9743 189.482 52.3423C190.154 52.7103 190.682 53.2223 191.066 53.8783C191.45 54.5263 191.642 55.2543 191.642 56.0623C191.642 56.8703 191.45 57.6023 191.066 58.2583C190.682 58.9063 190.154 59.4143 189.482 59.7823C188.818 60.1503 188.07 60.3343 187.238 60.3343ZM187.238 59.5423C187.902 59.5423 188.502 59.3943 189.038 59.0983C189.574 58.7943 189.994 58.3783 190.298 57.8503C190.602 57.3143 190.754 56.7183 190.754 56.0623C190.754 55.4063 190.602 54.8143 190.298 54.2863C189.994 53.7503 189.574 53.3343 189.038 53.0383C188.502 52.7343 187.902 52.5823 187.238 52.5823C186.574 52.5823 185.97 52.7343 185.426 53.0383C184.89 53.3343 184.466 53.7503 184.154 54.2863C183.85 54.8143 183.698 55.4063 183.698 56.0623C183.698 56.7183 183.85 57.3143 184.154 57.8503C184.466 58.3783 184.89 58.7943 185.426 59.0983C185.97 59.3943 186.574 59.5423 187.238 59.5423ZM198.217 51.8623C199.289 51.8623 200.129 52.1183 200.737 52.6303C201.345 53.1423 201.649 53.8463 201.649 54.7423C201.649 55.6383 201.345 56.3423 200.737 56.8543C200.129 57.3583 199.289 57.6103 198.217 57.6103H195.961V60.2623H195.073V51.8623H198.217ZM198.193 56.8303C199.025 56.8303 199.661 56.6503 200.101 56.2903C200.541 55.9223 200.761 55.4063 200.761 54.7423C200.761 54.0623 200.541 53.5423 200.101 53.1823C199.661 52.8143 199.025 52.6303 198.193 52.6303H195.961V56.8303H198.193ZM213.733 51.8623V60.2623H212.881V53.5423L209.581 59.1943H209.161L205.861 53.5783V60.2623H205.009V51.8623H205.741L209.389 58.0903L213.001 51.8623H213.733ZM223.85 59.4943V60.2623H217.91V51.8623H223.67V52.6303H218.798V55.6183H223.142V56.3743H218.798V59.4943H223.85ZM234.397 51.8623V60.2623H233.665L228.265 53.4463V60.2623H227.377V51.8623H228.109L233.521 58.6783V51.8623H234.397ZM240.211 52.6303H237.259V51.8623H244.051V52.6303H241.099V60.2623H240.211V52.6303Z" fill="white"/>
</svg>
