<svg width="21" height="27" viewBox="0 0 21 27" fill="none" xmlns="http://www.w3.org/2000/svg">
<g clip-path="url(#clip0)">
<path d="M20.9864 22.1235C20.9196 21.4775 20.6283 20.9206 20.1872 20.5956L15.0064 16.7775C14.3719 16.3098 13.5669 16.446 13.049 17.1088L12.0286 18.415C11.757 18.7627 11.3274 18.7934 11.0295 18.4865C10.225 17.6579 9.43292 16.7461 8.67526 15.7762C7.91759 14.8064 7.20519 13.7926 6.55783 12.7628C6.31804 12.3814 6.34203 11.8315 6.61367 11.4839L7.63408 10.1777C8.15195 9.5149 8.25844 8.48466 7.89301 7.67229L4.91011 1.0409C4.65612 0.476259 4.22107 0.103429 3.71645 0.0179723C3.21178 -0.0676588 2.71591 0.147783 2.35596 0.608508L0.818367 2.57669C-0.25479 3.95039 -0.272025 6.46313 0.769837 9.65215C1.77165 12.7185 3.6412 16.094 6.03402 19.157C8.42694 22.2198 11.0641 24.6129 13.4597 25.8952C14.6861 26.5516 15.7843 26.8796 16.7116 26.8796C17.668 26.8796 18.4425 26.5305 18.9874 25.833L20.525 23.8648C20.8849 23.4041 21.0531 22.7694 20.9864 22.1235ZM14.667 17.5321L19.8478 21.3502C20.104 21.539 20.2732 21.8625 20.3119 22.2377C20.3445 22.5525 20.2806 22.8625 20.1357 23.1123L13.2505 18.0825L13.5301 17.7246C13.8309 17.3397 14.2985 17.2605 14.667 17.5321ZM3.62719 0.881309C3.92032 0.930946 4.173 1.14749 4.32049 1.47544L7.30339 8.10684C7.51565 8.57865 7.45379 9.17708 7.15304 9.56199L6.89619 9.89075L2.94509 1.10685C3.1066 0.953761 3.29977 0.870626 3.50115 0.870626C3.54292 0.870626 3.58505 0.874168 3.62719 0.881309ZM18.5063 25.2172C17.6537 26.3085 15.91 26.2628 13.7222 25.0917C11.4063 23.8521 8.84688 21.5257 6.51516 18.5412C4.18343 15.5566 2.36594 12.2804 1.39751 9.31618C0.482555 6.51578 0.44686 4.2838 1.29945 3.19242L2.44092 1.73129L6.39796 10.5285L6.13258 10.8682C5.61485 11.5309 5.56977 12.5801 6.02777 13.3088C6.69036 14.3628 7.41927 15.4002 8.19413 16.392C8.96907 17.3839 9.77948 18.3169 10.6029 19.165C11.1721 19.7512 11.9918 19.6936 12.5097 19.0308L12.7518 18.7209L19.6465 23.7577L18.5063 25.2172Z" fill="white"/>
</g>
<defs>
<clipPath id="clip0">
<rect width="21" height="26.88" fill="white"/>
</clipPath>
</defs>
</svg>
