<svg width="35" height="20" viewBox="0 0 35 20" fill="none" xmlns="http://www.w3.org/2000/svg">
<path d="M34.0642 17.9958C34.0232 17.9046 33.985 17.829 33.9494 17.7685C33.3616 16.6771 32.2382 15.3376 30.58 13.7495L30.545 13.7131L30.5274 13.6953L30.5097 13.677H30.4919C29.7393 12.9375 29.2627 12.4402 29.0632 12.1857C28.698 11.7007 28.6162 11.2099 28.8158 10.7125C28.9568 10.3367 29.4864 9.54314 30.4035 8.33066C30.8859 7.68808 31.2679 7.17308 31.55 6.78508C33.5848 3.9967 34.4669 2.21488 34.1963 1.43894L34.0912 1.25761C34.0206 1.14845 33.8383 1.04858 33.5446 0.957502C33.2502 0.866615 32.874 0.851585 32.4152 0.912155L27.3347 0.948331C27.2524 0.918269 27.1349 0.921071 26.9818 0.957502C26.8289 0.993933 26.7524 1.01221 26.7524 1.01221L26.664 1.05775L26.5938 1.11246C26.535 1.14864 26.4703 1.21227 26.3996 1.30322C26.3294 1.39385 26.2706 1.50021 26.2237 1.62141C25.6705 3.08827 25.0417 4.45209 24.3358 5.71278C23.9007 6.46452 23.501 7.11601 23.136 7.66764C22.7715 8.21907 22.4658 8.62536 22.219 8.88579C21.9718 9.14647 21.7488 9.35531 21.5484 9.51308C21.3484 9.6709 21.1958 9.73759 21.09 9.71319C20.9841 9.6888 20.8843 9.6646 20.7898 9.64039C20.6253 9.53123 20.4929 9.38276 20.3931 9.19488C20.2929 9.00699 20.2254 8.77051 20.1902 8.48562C20.1551 8.20054 20.1343 7.95533 20.1284 7.74916C20.1229 7.54325 20.1254 7.25199 20.1373 6.87622C20.1496 6.50025 20.1551 6.24587 20.1551 6.1125C20.1551 5.65176 20.1638 5.15173 20.1813 4.61227C20.1991 4.07281 20.2134 3.64538 20.2255 3.33049C20.2375 3.01529 20.243 2.6818 20.243 2.33023C20.243 1.97866 20.2223 1.70294 20.1813 1.50282C20.1407 1.30296 20.0785 1.10896 19.9965 0.92088C19.914 0.732993 19.7933 0.58765 19.6349 0.484471C19.4761 0.38142 19.2788 0.299641 19.0439 0.23888C18.4205 0.093474 17.6267 0.014816 16.6622 0.00258736C14.4748 -0.0216151 13.0693 0.123982 12.446 0.439187C12.199 0.572364 11.9755 0.754328 11.7757 0.984507C11.5639 1.25131 11.5344 1.39691 11.6873 1.42085C12.393 1.52983 12.8926 1.79051 13.1867 2.20266L13.2927 2.42105C13.3751 2.57862 13.4574 2.85759 13.5397 3.25757C13.622 3.65754 13.6751 4.1 13.6984 4.58469C13.7571 5.4698 13.7571 6.22746 13.6984 6.85775C13.6395 7.48829 13.5839 7.97915 13.5308 8.33072C13.4778 8.68229 13.3984 8.96718 13.2927 9.18532C13.1867 9.40353 13.1162 9.5369 13.0808 9.5853C13.0456 9.63371 13.0161 9.66422 12.9928 9.67619C12.8399 9.73657 12.6809 9.76733 12.5164 9.76733C12.3516 9.76733 12.1518 9.68237 11.9166 9.51257C11.6815 9.34277 11.4375 9.10953 11.1846 8.81248C10.9317 8.51536 10.6465 8.10016 10.3288 7.56682C10.0114 7.03347 9.68211 6.40312 9.34103 5.67578L9.05885 5.14829C8.88244 4.80894 8.64147 4.31483 8.33567 3.6664C8.0297 3.01771 7.75925 2.39022 7.52415 1.78408C7.43017 1.52951 7.28898 1.3357 7.10083 1.20233L7.01254 1.14762C6.95384 1.09921 6.85961 1.04782 6.73035 0.993041C6.6009 0.938331 6.46583 0.899097 6.32458 0.874959L1.49094 0.911135C0.997003 0.911135 0.661862 1.02648 0.485395 1.25685L0.414771 1.36582C0.379489 1.42652 0.361694 1.52346 0.361694 1.65689C0.361694 1.79026 0.396976 1.95394 0.4676 2.14775C1.17322 3.85721 1.94057 5.50585 2.76965 7.09391C3.59873 8.68198 4.31918 9.9612 4.93058 10.9304C5.5421 11.9004 6.16542 12.8158 6.80054 13.6763C7.43566 14.5371 7.85607 15.0887 8.06177 15.331C8.26771 15.5738 8.42947 15.7553 8.54705 15.8765L8.98816 16.3129C9.27041 16.6039 9.68489 16.9524 10.2318 17.3584C10.7788 17.7647 11.3844 18.1647 12.0488 18.559C12.7134 18.9527 13.4866 19.2739 14.3688 19.5224C15.2508 19.7711 16.1093 19.8709 16.9443 19.8228H18.9731C19.3846 19.7861 19.6963 19.6528 19.9081 19.4226L19.9783 19.3314C20.0255 19.2591 20.0697 19.1467 20.1105 18.9954C20.1518 18.8439 20.1723 18.677 20.1723 18.4954C20.1602 17.9742 20.1987 17.5045 20.2867 17.0863C20.3747 16.6682 20.4749 16.353 20.587 16.1407C20.699 15.9286 20.8254 15.7497 20.9661 15.6046C21.1071 15.4592 21.2076 15.3711 21.2665 15.3408C21.3251 15.3103 21.3719 15.2896 21.4071 15.2772C21.6894 15.1802 22.0216 15.2741 22.4042 15.5592C22.7864 15.8441 23.145 16.1959 23.4804 16.614C23.8156 17.0324 24.2183 17.5019 24.6887 18.0231C25.1593 18.5444 25.5708 18.932 25.9235 19.1869L26.2762 19.4051C26.5117 19.5507 26.8175 19.6841 27.1939 19.8053C27.5697 19.9264 27.8989 19.9568 28.1816 19.8962L32.6975 19.8236C33.1442 19.8236 33.4917 19.7473 33.7383 19.5961C33.9853 19.4446 34.132 19.2776 34.1794 19.096C34.2266 18.9143 34.2291 18.708 34.1883 18.4775C34.1465 18.2475 34.1053 18.0867 34.0642 17.9958Z" fill="white"/>
</svg>
